<svg width="376" height="375" viewBox="0 0 376 375" fill="none" xmlns="http://www.w3.org/2000/svg">
<path d="M100.5 175V150H75.5V125H50.5V100H25.5V75H50.5V50H75.5V25H100.5V0H150.5V25H125.5V50H100.5V75H75.5V100H100.5V125H125.5V150H150.5V175H100.5ZM200.5 175V0H350.5V25H375.5V100H325.5V125H350.5V150H375.5V175H300.5V150H275.5V125H250.5V175H200.5ZM250.5 100H300.5V75H325.5V25H250.5V100ZM0.5 375V200H175.5V225H50.5V275H150.5V300H50.5V375H0.5ZM225.5 375V350H250.5V325H275.5V300H300.5V275H275.5V250H250.5V225H225.5V200H275.5V225H300.5V250H325.5V275H350.5V300H325.5V325H300.5V350H275.5V375H225.5Z" fill="#44FFD2" fill-opacity="0.866667"/>
</svg>
