<svg width="530" height="93" viewBox="0 0 530 93" fill="none" xmlns="http://www.w3.org/2000/svg">
<g clip-path="url(#clip0_7_5)">
<path d="M54 91.75V78.5H40.75V65.25H27.5V52H14.25V38.75H27.5V25.5H40.75V12.25H54V-1H80.5V12.25H67.25V25.5H54V38.75H40.75V52H54V65.25H67.25V78.5H80.5V91.75H54ZM107 91.75V-1H186.5V12.25H199.75V52H173.25V65.25H186.5V78.5H199.75V91.75H160V78.5H146.75V65.25H133.5V91.75H107ZM133.5 52H160V38.75H173.25V12.25H133.5V52ZM213 91.75V-1H305.75V12.25H239.5V38.75H292.5V52H239.5V91.75H213ZM411.75 -1V12.25H398.5V-1H411.75ZM385.25 12.25H398.5V25.5H385.25V12.25ZM372 25.5H385.25V38.75H372V25.5ZM358.75 38.75H372V52H358.75V38.75ZM345.5 52H358.75V65.25H345.5V52ZM332.25 65.25H345.5V78.5H332.25V65.25ZM319 78.5H332.25V91.75H319V78.5ZM438.25 91.75V78.5H451.5V65.25H464.75V52H478V38.75H464.75V25.5H451.5V12.25H438.25V-1H464.75V12.25H478V25.5H491.25V38.75H504.5V52H491.25V65.25H478V78.5H464.75V91.75H438.25Z" fill="#44FFD2" fill-opacity="0.866667"/>
</g>
<defs>
<clipPath id="clip0_7_5">
<rect width="530" height="93" fill="white"/>
</clipPath>
</defs>
</svg>
